# WaveFront *.obj file (generated by Autodesk ATF)

mtllib emu.mtl

g Solid1

v -0.794155 0.776961 -0.060000
v -0.794155 0.776961 0.060000
v -0.685711 -0.904728 -0.060000
v -0.685711 -0.904728 0.060000
v -0.641358 -0.088417 -0.060000
v -0.641358 -0.088417 0.060000
v -0.535976 -0.316744 -0.060000
v -0.535976 -0.316744 0.060000
v -0.277797 1.142100 -0.060000
v -0.277797 1.142100 0.060000
v -0.107212 -1.142100 -0.060000
v -0.107212 -1.142100 0.060000
v 0.457848 -1.094510 -0.060000
v 0.457848 -1.094510 0.060000
v 0.563043 1.087143 -0.060000
v 0.563043 1.087143 0.060000
v 0.595059 -0.124886 -0.060000
v 0.595059 -0.124886 0.060000
v 0.782581 0.611479 -0.060000
v 0.782581 0.611479 0.060000
vt 0.179540 -0.024976 0.000000
vt 0.222703 0.219481 0.000000
vt 0.076839 0.322627 0.000000
vt -0.160687 0.307103 0.000000
vt -0.222703 0.172734 0.000000
vt -0.169731 -0.035279 0.000000
vt -0.130970 -0.309184 0.000000
vt 0.028651 -0.322627 0.000000
vt 0.192069 -0.255573 0.000000
vt 0.149771 -0.089476 0.000000
vt 0.178649 -0.016949 0.000000
vt 0.178649 0.016949 0.000000
vt 0.000000 0.016949 0.000000
vt 0.000000 -0.016949 0.000000
vt 0.238032 -0.016949 0.000000
vt 0.238032 0.016949 0.000000
vt 0.000000 0.016949 0.000000
vt 0.000000 -0.016949 0.000000
vt 0.147990 -0.016949 0.000000
vt 0.147990 0.016949 0.000000
vt 0.000000 0.016949 0.000000
vt 0.000000 -0.016949 0.000000
vt 0.214652 -0.016949 0.000000
vt 0.214652 0.016949 0.000000
vt 0.000000 0.016949 0.000000
vt 0.000000 -0.016949 0.000000
vt 0.276634 -0.016949 0.000000
vt 0.276634 0.016949 0.000000
vt 0.000000 0.016949 0.000000
vt 0.000000 -0.016949 0.000000
vt 0.160187 -0.016949 0.000000
vt 0.160187 0.016949 0.000000
vt 0.000000 0.016949 0.000000
vt 0.000000 -0.016949 0.000000
vt 0.176640 -0.016949 0.000000
vt 0.176640 0.016949 0.000000
vt 0.000000 0.016949 0.000000
vt 0.000000 -0.016949 0.000000
vt 0.171398 -0.016949 0.000000
vt 0.171398 0.016949 0.000000
vt 0.000000 0.016949 0.000000
vt 0.000000 -0.016949 0.000000
vt 0.071038 -0.016949 0.000000
vt 0.071038 0.016949 0.000000
vt 0.000000 0.016949 0.000000
vt 0.000000 -0.016949 0.000000
vt 0.248238 -0.016949 0.000000
vt 0.248238 0.016949 0.000000
vt 0.000000 0.016949 0.000000
vt 0.000000 -0.016949 0.000000
vt -0.222703 0.219481 0.000000
vt -0.179540 -0.024976 0.000000
vt -0.149771 -0.089476 0.000000
vt -0.192069 -0.255573 0.000000
vt -0.028651 -0.322627 0.000000
vt 0.130970 -0.309184 0.000000
vt 0.169731 -0.035279 0.000000
vt 0.222703 0.172734 0.000000
vt 0.160687 0.307103 0.000000
vt -0.076839 0.322627 0.000000
vn 0.000000 0.000000 -2.540000
vn 0.000000 0.000000 -2.540000
vn 0.000000 0.000000 -2.540000
vn 0.000000 0.000000 -2.540000
vn 0.000000 0.000000 -2.540000
vn 0.000000 0.000000 -2.540000
vn 0.000000 0.000000 -2.540000
vn 0.000000 0.000000 -2.540000
vn 0.000000 0.000000 -2.540000
vn 0.000000 0.000000 -2.540000
vn -1.466520 2.073866 0.000000
vn -1.466520 2.073866 0.000000
vn -1.466520 2.073866 0.000000
vn -1.466520 2.073866 0.000000
vn 0.165660 2.534592 0.000000
vn 0.165660 2.534592 0.000000
vn 0.165660 2.534592 0.000000
vn 0.165660 2.534592 0.000000
vn 2.306217 1.064408 0.000000
vn 2.306217 1.064408 0.000000
vn 2.306217 1.064408 0.000000
vn 2.306217 1.064408 0.000000
vn 2.461440 -0.626826 0.000000
vn 2.461440 -0.626826 0.000000
vn 2.461440 -0.626826 0.000000
vn 2.461440 -0.626826 0.000000
vn 2.514944 -0.355888 0.000000
vn 2.514944 -0.355888 0.000000
vn 2.514944 -0.355888 0.000000
vn 2.514944 -0.355888 0.000000
vn 0.213169 -2.531039 0.000000
vn 0.213169 -2.531039 0.000000
vn 0.213169 -2.531039 0.000000
vn 0.213169 -2.531039 0.000000
vn -0.964211 -2.349872 0.000000
vn -0.964211 -2.349872 0.000000
vn -0.964211 -2.349872 0.000000
vn -0.964211 -2.349872 0.000000
vn -2.461440 0.626826 0.000000
vn -2.461440 0.626826 0.000000
vn -2.461440 0.626826 0.000000
vn -2.461440 0.626826 0.000000
vn -2.306217 -1.064408 0.000000
vn -2.306217 -1.064408 0.000000
vn -2.306217 -1.064408 0.000000
vn -2.306217 -1.064408 0.000000
vn -2.501309 -0.441648 0.000000
vn -2.501309 -0.441648 0.000000
vn -2.501309 -0.441648 0.000000
vn -2.501309 -0.441648 0.000000
vn 0.000000 0.000000 2.540000
vn 0.000000 0.000000 2.540000
vn 0.000000 0.000000 2.540000
vn 0.000000 0.000000 2.540000
vn 0.000000 0.000000 2.540000
vn 0.000000 0.000000 2.540000
vn 0.000000 0.000000 2.540000
vn 0.000000 0.000000 2.540000
vn 0.000000 0.000000 2.540000
vn 0.000000 0.000000 2.540000
usemtl 191,191,191
f 1/2/2 9/3/3 5/1/1
f 5/1/1 9/3/3 7/10/10
f 7/10/10 9/3/3 17/6/6
f 7/10/10 17/6/6 11/8/8
f 11/8/8 17/6/6 13/7/7
f 9/3/3 15/4/4 17/6/6
f 17/6/6 15/4/4 19/5/5
f 11/8/8 3/9/9 7/10/10
usemtl 255,255,255
f 2/12/12 10/13/13 1/11/11
f 1/11/11 10/13/13 9/14/14
f 10/16/16 16/17/17 9/15/15
f 9/15/15 16/17/17 15/18/18
f 16/20/20 20/21/21 15/19/19
f 15/19/19 20/21/21 19/22/22
f 20/24/24 18/25/25 19/23/23
f 19/23/23 18/25/25 17/26/26
f 18/28/28 14/29/29 17/27/27
f 17/27/27 14/29/29 13/30/30
f 14/32/32 12/33/33 13/31/31
f 13/31/31 12/33/33 11/34/34
f 12/36/36 4/37/37 11/35/35
f 11/35/35 4/37/37 3/38/38
f 4/40/40 8/41/41 3/39/39
f 3/39/39 8/41/41 7/42/42
f 8/44/44 6/45/45 7/43/43
f 7/43/43 6/45/45 5/46/46
f 6/48/48 2/49/49 5/47/47
f 5/47/47 2/49/49 1/50/50
usemtl 189,186,181
f 2/51/51 6/52/52 10/60/60
f 10/60/60 6/52/52 8/53/53
f 10/60/60 8/53/53 18/57/57
f 18/57/57 8/53/53 12/55/55
f 18/57/57 12/55/55 14/56/56
f 8/53/53 4/54/54 12/55/55
f 20/58/58 16/59/59 18/57/57
f 18/57/57 16/59/59 10/60/60
# 20 vertices
# 60 texture params
# 60 normals
# 36 facets

# 1 groups
